<?xml version="1.0" encoding="utf-8"?>
<!-- Generator: Adobe Illustrator 26.0.3, SVG Export Plug-In . SVG Version: 6.00 Build 0)  -->
<svg version="1.1" id="Слой_1" xmlns="http://www.w3.org/2000/svg" xmlns:xlink="http://www.w3.org/1999/xlink" x="0px" y="0px"
	 viewBox="0 0 600 600" style="enable-background:new 0 0 600 600;" xml:space="preserve">
<style type="text/css">
	.st0{fill:#49617F;}
</style>
<path class="st0" d="M570,340H30c-16.57,0-30-13.43-30-30v-20c0-16.57,13.43-30,30-30h540c16.57,0,30,13.43,30,30v20
	C600,326.57,586.57,340,570,340z"/>
<path class="st0" d="M570,600H30c-16.57,0-30-13.43-30-30v-20c0-16.57,13.43-30,30-30h540c16.57,0,30,13.43,30,30v20
	C600,586.57,586.57,600,570,600z"/>
<path class="st0" d="M570,80H30C13.43,80,0,66.57,0,50V30C0,13.43,13.43,0,30,0h540c16.57,0,30,13.43,30,30v20
	C600,66.57,586.57,80,570,80z"/>
</svg>
